# xmcd
#
# Track frame offsets:
#	150
#	2535
#	29036
#	52961
#	75652
#	98940
#	120783
#	133617
#	152810
#	174083
#	198282
#	216971
#	236096
#	257084
#	274006
#	299985
#	323824
#
# Disc length: 4460 seconds
#
# Revision: 1
# Processed by: cddbd v1.5.2PL0 Copyright (c) Steve Scherf et al.
# Submitted via: EZCDAudioConverter 2.3.2.1
#
DISCID=ec116a11
DTITLE=브라운 아이드 소울 - SOUL COOKE
DYEAR=2015
DGENRE=R&B
TTITLE0=SOUL COOKE
TTITLE1=밤의 멜로디
TTITLE2=사랑의 말 \n(HOW MUCH I LOVE YOU)
TTITLE3=너를
TTITLE4=TENDER Eyes (Feat. 타블로)
TTITLE5=BES Theme
TTITLE6=GROOVE MIDNIGHT
TTITLE7=Pass Me By
TTITLE8=HOME
TTITLE9=You Are So Beautiful
TTITLE10=어떻게 너를 사랑하지 않을 수가 있겠어
TTITLE11=그만.그만 (With. 유성은)
TTITLE12=Philly Love Song
TTITLE13=THE ONLY LOVE
TTITLE14=RAPTURE
TTITLE15=Always Be There
TTITLE16=THANK YOUR SOUL
EXTD=
EXTT0=
EXTT1=
EXTT2=
EXTT3=
EXTT4=
EXTT5=
EXTT6=
EXTT7=
EXTT8=
EXTT9=
EXTT10=
EXTT11=
EXTT12=
EXTT13=
EXTT14=
EXTT15=
EXTT16=
PLAYORDER=
